<?xml version="1.0" encoding="UTF-8" standalone="no"?><!-- Generator: Gravit.io --><svg xmlns="http://www.w3.org/2000/svg" xmlns:xlink="http://www.w3.org/1999/xlink" style="isolation:isolate" viewBox="0 0 117 63" width="117pt" height="63pt"><defs><clipPath id="_clipPath_48f6UvaLQ0piPULCfRkZX0EvTPoonWmW"><rect width="117" height="63"/></clipPath></defs><g clip-path="url(#_clipPath_48f6UvaLQ0piPULCfRkZX0EvTPoonWmW)"><g><g><path d=" M 47.219 51.84 C 45.104 50.719 44.492 49.012 45.435 46.922 C 45.996 45.725 46.327 45.597 50.811 44.986 L 53.181 44.68 L 53.028 42.973 C 52.799 40.145 51.907 38.998 50.2 39.304 L 49.333 39.482 L 49.155 41.368 L 48.977 43.253 L 48.008 43.253 C 46.887 43.253 45.97 42.362 45.97 41.266 C 45.97 40.476 47.422 39.075 48.671 38.667 C 51.193 37.826 55.194 39.024 56.569 41.011 C 57.308 42.056 57.308 42.081 57.385 46.566 L 57.461 51.101 L 58.226 51.254 C 59.602 51.509 59.015 51.916 57.206 51.916 C 55.754 51.916 55.295 51.814 54.506 51.279 C 53.588 50.642 53.537 50.642 52.926 51.075 C 50.811 52.604 49.104 52.834 47.219 51.84 Z  M 52.009 50.77 C 52.722 50.286 53.104 48.935 53.104 46.973 L 53.104 45.496 L 52.162 45.648 C 49.537 46.107 49.792 45.827 49.792 48.324 C 49.792 49.7 49.919 50.668 50.098 50.846 C 50.505 51.254 51.346 51.228 52.009 50.77 Z " fill="rgb(0,0,0)"/><path d=" M 35.574 50.464 C 35.039 49.521 33.511 46.769 32.211 44.374 C 30.682 41.521 29.663 39.89 29.256 39.661 C 28.109 39.049 28.619 38.871 31.217 38.973 L 33.816 39.049 L 34.606 40.017 C 35.039 40.553 36.033 42.158 36.823 43.585 C 37.587 44.986 38.326 46.183 38.479 46.234 C 38.708 46.311 41.307 40.247 41.103 40.094 C 41.053 40.068 40.619 39.89 40.186 39.712 C 39.728 39.508 39.345 39.279 39.345 39.151 C 39.345 39.024 40.492 38.922 41.893 38.922 C 43.295 38.922 44.441 38.973 44.441 39.049 C 44.441 39.1 44.008 39.38 43.448 39.661 C 42.326 40.247 41.944 40.96 39.702 46.54 C 38.224 50.26 37.358 51.942 36.874 52.095 C 36.721 52.146 36.135 51.432 35.574 50.464 Z " fill="rgb(0,0,0)"/><path d=" M 3.165 51.687 C 2.859 51.483 2.961 51.381 3.623 51.254 L 4.439 51.101 L 4.439 42.718 L 4.439 34.361 L 3.751 34.285 C 3.343 34.234 3.063 34.106 3.114 33.953 C 3.139 33.8 4.974 33.699 7.98 33.724 C 12.541 33.75 12.847 33.775 14.172 34.386 C 16.006 35.227 17.408 36.527 18.35 38.208 C 19.064 39.482 19.089 39.712 19.089 42.616 C 19.089 45.394 19.038 45.801 18.427 47.101 C 17.51 49.037 16.057 50.439 14.223 51.177 C 12.872 51.712 12.21 51.789 8.133 51.84 C 5.356 51.891 3.394 51.84 3.165 51.687 Z  M 11.828 50.413 C 12.465 50.082 12.949 49.521 13.484 48.477 C 14.248 46.999 14.248 46.948 14.248 42.897 C 14.248 39.533 14.172 38.565 13.79 37.597 C 13.229 36.17 11.955 34.973 10.63 34.616 C 8.617 34.055 8.77 33.342 8.77 42.769 L 8.77 51.228 L 9.866 51.05 C 10.452 50.948 11.344 50.668 11.828 50.413 Z " fill="rgb(0,0,0)"/><path d=" M 21.382 51.662 C 21.281 51.509 21.561 51.33 21.994 51.254 L 22.784 51.101 L 22.784 45.419 L 22.784 39.763 L 22.019 39.61 C 20.44 39.279 21.281 38.922 23.548 38.922 C 25.663 38.922 25.918 38.973 26.478 39.559 C 27.115 40.17 27.115 40.17 27.115 45.623 L 27.115 51.101 L 27.905 51.254 C 28.338 51.33 28.619 51.509 28.517 51.662 C 28.415 51.814 26.962 51.916 24.95 51.916 C 22.937 51.916 21.484 51.814 21.382 51.662 Z " fill="rgb(0,0,0)"/><path d=" M 23.523 36.909 C 23.09 36.578 22.937 36.17 22.937 35.482 C 22.937 33.699 24.771 32.96 25.969 34.234 C 26.784 35.1 26.784 35.864 25.969 36.731 C 25.255 37.52 24.338 37.571 23.523 36.909 Z " fill="rgb(0,0,0)"/><path d=" M 84.571 36.374 C 84.495 36.246 85.055 35.839 85.82 35.482 C 87.043 34.896 87.272 34.692 87.501 33.8 C 88.037 31.864 87.629 31.125 83.323 25.8 C 80.112 21.825 79.577 20.169 80.469 16.831 C 80.928 15.124 81.667 13.927 82.966 12.831 C 84.189 11.786 85.82 11.2 90.559 10.13 C 96.75 8.729 98.763 7.71 100.419 5.162 C 101.744 3.123 101.974 2.868 102.152 3.047 C 102.254 3.149 102.05 3.939 101.668 4.779 C 101.311 5.646 101.006 6.385 101.006 6.41 C 101.006 6.461 101.948 7.225 103.12 8.168 C 106.331 10.691 108.42 13.035 109.108 14.895 C 109.923 17.086 109.949 21.494 109.133 23.379 C 108.828 24.067 108.496 24.653 108.369 24.653 C 108.038 24.653 108.089 24.195 108.547 22.742 C 109.159 20.806 109.082 17.494 108.42 15.404 C 108.114 14.436 107.783 13.723 107.707 13.799 C 107.63 13.876 107.452 16.067 107.35 18.666 C 107.172 23.15 107.121 23.456 106.484 24.602 C 106.101 25.265 105.21 26.411 104.496 27.125 L 103.197 28.475 L 103.477 30.947 C 103.681 32.654 103.987 33.902 104.445 34.922 C 105.184 36.501 105.108 37.138 104.318 36.17 C 103.579 35.278 102.789 32.883 102.611 31.1 C 102.534 30.208 102.407 29.494 102.356 29.494 C 102.279 29.494 101.515 30.131 100.674 30.921 C 98.534 32.858 97.923 33.138 96.139 33.011 C 94.304 32.883 93.667 32.45 89.744 28.679 C 85.641 24.73 85.641 24.73 85.463 17.978 C 85.387 15.073 85.259 12.627 85.157 12.525 C 84.699 12.067 82.278 14.36 81.59 15.914 C 81.335 16.5 81.055 17.748 80.953 18.64 C 80.826 20.093 80.877 20.475 81.463 21.647 C 81.845 22.386 83.297 24.424 84.724 26.182 C 88.47 30.794 89.234 32.807 88.011 34.794 C 87.298 35.941 84.979 37.011 84.571 36.374 Z  M 98.126 31.864 C 100.394 30.616 105.49 25.163 106.05 23.379 C 106.229 22.87 106.382 20.194 106.407 17.315 L 106.484 12.118 L 105.133 10.869 C 104.394 10.181 103.018 9.085 102.101 8.423 L 100.419 7.225 L 99.375 7.811 C 96.164 9.646 94.61 10.156 88.266 11.481 L 86.61 11.812 L 86.533 17.162 C 86.457 22.844 86.584 23.813 87.654 25.418 C 87.986 25.902 89.718 27.66 91.502 29.291 C 94.763 32.297 94.763 32.297 96.037 32.297 C 96.776 32.297 97.668 32.119 98.126 31.864 Z " fill="rgb(0,0,0)"/><path d=" M 94.763 28.603 C 92.929 27.609 92.674 26.845 93.871 25.825 C 94.687 25.137 96.496 24.755 97.489 25.036 C 98.279 25.29 99.477 26.437 99.477 26.947 C 99.477 27.176 99.146 27.685 98.712 28.093 C 97.77 28.985 95.935 29.24 94.763 28.603 Z  M 97.235 27.966 C 99.171 27.431 98.636 25.927 96.521 25.927 C 93.846 25.927 93.285 27.278 95.655 28.042 C 96.215 28.246 96.215 28.246 97.235 27.966 Z " fill="rgb(0,0,0)"/><path d=" M 95.604 23.838 C 94.33 23.379 94.738 22.946 96.368 23.023 C 97.158 23.048 97.872 23.099 97.948 23.125 C 98.203 23.176 96.878 24.144 96.572 24.118 C 96.419 24.118 95.986 23.991 95.604 23.838 Z " fill="rgb(0,0,0)"/><path d=" M 88.113 18.233 C 88.062 18.131 88.113 18.003 88.266 17.901 C 88.673 17.647 88.572 17.264 88.138 17.417 C 87.935 17.519 87.578 17.494 87.349 17.417 C 87.017 17.29 86.992 17.188 87.247 16.882 C 87.68 16.347 88.342 16.398 89.591 17.035 C 90.406 17.468 90.967 17.545 92.139 17.468 C 93.693 17.366 93.897 17.468 93.183 18.054 C 92.75 18.436 88.317 18.589 88.113 18.233 Z " fill="rgb(0,0,0)"/><path d=" M 99.426 18.029 L 98.84 17.545 L 100.394 17.519 C 101.388 17.519 102.432 17.315 103.273 16.984 C 104.343 16.525 104.7 16.474 105.21 16.704 C 106.229 17.188 105.999 17.596 104.802 17.443 C 103.834 17.315 103.783 17.341 104.165 17.748 C 104.394 18.003 104.573 18.233 104.573 18.309 C 104.573 18.36 103.553 18.436 102.305 18.462 C 100.369 18.513 99.935 18.436 99.426 18.029 Z " fill="rgb(0,0,0)"/><path d=" M 92.776 14.079 C 92.139 13.519 91.833 13.442 90.049 13.442 C 87.68 13.442 87.094 13.29 87.527 12.78 C 87.884 12.347 90.483 12.296 91.858 12.678 C 92.878 12.958 93.871 13.799 93.871 14.334 C 93.871 14.869 93.591 14.793 92.776 14.079 Z " fill="rgb(0,0,0)"/><path d=" M 98.967 13.952 C 99.528 12.907 100.47 12.551 102.662 12.551 C 104.929 12.551 105.949 12.805 105.337 13.213 C 105.108 13.341 104.114 13.391 102.993 13.29 C 101.133 13.137 100.98 13.162 100.241 13.799 C 99.247 14.614 98.559 14.716 98.967 13.952 Z " fill="rgb(0,0,0)"/><path d=" M 85.387 34.412 C 85.31 34.285 85.183 33.826 85.081 33.393 C 84.826 32.195 83.246 30.947 79.883 29.265 C 76.775 27.736 75.526 26.564 75.526 25.188 L 75.552 24.526 L 76.036 25.163 C 76.291 25.52 76.775 26.131 77.08 26.513 C 77.386 26.921 78.864 27.838 80.622 28.73 C 84.801 30.819 85.973 31.94 85.973 33.826 C 85.973 34.539 85.641 34.845 85.387 34.412 Z " fill="rgb(0,0,0)"/><path d=" M 56.06 30.896 C 54.862 29.775 55.295 27.482 56.824 27.099 C 58.098 26.768 58.455 27.099 58.455 28.552 C 58.455 29.291 58.582 30.055 58.71 30.259 C 58.914 30.59 58.99 30.565 59.347 30.131 C 59.907 29.393 60.493 28.297 60.875 27.201 C 61.207 26.284 61.181 26.182 59.805 23.481 C 57.13 18.182 54.608 13.927 53.971 13.646 C 52.926 13.162 53.563 12.933 55.958 12.933 L 58.277 12.933 L 59.219 13.927 C 59.729 14.462 60.875 16.194 61.767 17.748 C 62.634 19.328 63.398 20.551 63.449 20.526 C 63.602 20.373 65.844 14.513 65.844 14.258 C 65.844 14.13 65.513 13.876 65.08 13.697 C 63.755 13.162 64.239 12.933 66.736 12.933 C 68.061 12.933 69.156 13.009 69.156 13.137 C 69.156 13.239 68.672 13.544 68.086 13.825 L 67.016 14.334 L 64.06 21.723 C 62.455 25.8 60.926 29.443 60.672 29.826 C 59.576 31.507 57.308 32.042 56.06 30.896 Z " fill="rgb(0,0,0)"/><path d=" M 26.224 26.208 C 24.44 25.749 22.809 24.399 21.867 22.615 C 21.153 21.29 21.204 17.519 21.943 16.092 C 24.032 12.118 29.969 11.175 33.307 14.334 C 34.632 15.608 35.141 16.933 35.116 19.175 C 35.116 20.296 34.963 21.647 34.759 22.207 C 34.326 23.532 32.848 25.137 31.498 25.723 C 30.3 26.259 27.421 26.539 26.224 26.208 Z  M 29.791 24.373 C 30.249 23.609 30.3 23.048 30.3 19.43 C 30.3 15.99 30.224 15.226 29.842 14.513 C 28.975 12.907 27.548 12.933 26.682 14.538 C 25.994 15.761 26.02 23.125 26.682 24.348 C 27.523 25.876 28.899 25.902 29.791 24.373 Z " fill="rgb(0,0,0)"/><path d=" M 3.165 25.698 C 2.859 25.494 2.961 25.392 3.623 25.265 L 4.439 25.112 L 4.439 16.755 L 4.439 8.423 L 3.649 8.245 C 3.165 8.143 2.935 7.99 3.063 7.811 C 3.19 7.582 4.541 7.557 8.031 7.633 C 12.414 7.761 12.923 7.837 14.197 8.423 C 16.006 9.238 17.408 10.538 18.35 12.219 C 19.064 13.493 19.089 13.723 19.089 16.627 C 19.089 19.405 19.038 19.812 18.427 21.112 C 17.51 23.048 16.057 24.45 14.223 25.188 C 12.872 25.723 12.21 25.8 8.133 25.851 C 5.356 25.902 3.394 25.851 3.165 25.698 Z  M 11.828 24.424 C 12.465 24.093 12.949 23.532 13.484 22.488 C 14.248 21.01 14.248 20.959 14.248 16.908 C 14.248 13.544 14.172 12.576 13.79 11.608 C 13.229 10.181 11.955 8.984 10.63 8.627 C 8.617 8.066 8.77 7.353 8.77 16.78 L 8.77 25.239 L 9.866 25.061 C 10.452 24.959 11.344 24.679 11.828 24.424 Z " fill="rgb(0,0,0)"/><path d=" M 37.434 25.673 C 37.333 25.52 37.613 25.341 38.046 25.265 L 38.836 25.112 L 38.836 22.997 C 38.836 21.851 38.759 18.131 38.657 14.742 C 38.505 8.576 38.505 8.55 37.893 8.321 C 36.721 7.888 37.282 7.582 39.294 7.582 C 40.365 7.582 41.511 7.659 41.791 7.735 C 42.913 8.041 43.014 8.754 43.116 17.162 L 43.218 25.112 L 43.983 25.265 C 44.39 25.341 44.671 25.52 44.569 25.673 C 44.467 25.825 43.014 25.927 41.002 25.927 C 38.989 25.927 37.536 25.825 37.434 25.673 Z " fill="rgb(0,0,0)"/><path d=" M 46.225 25.698 C 46.225 25.571 46.429 25.392 46.709 25.29 C 47.371 25.087 47.499 23.66 47.499 15.455 L 47.499 8.423 L 46.709 8.245 C 45.282 7.964 46.225 7.582 48.365 7.582 C 50.098 7.582 50.607 7.684 51.091 8.066 L 51.703 8.55 L 51.779 16.831 L 51.856 25.112 L 52.748 25.265 C 53.232 25.367 53.563 25.545 53.486 25.698 C 53.283 26.004 46.225 26.004 46.225 25.698 Z " fill="rgb(0,0,0)"/><path d=" M 81.234 12.551 C 81.514 11.481 81.845 10.691 82.125 10.512 C 82.533 10.283 82.482 11.251 82.049 12.296 C 81.616 13.315 80.979 13.519 81.234 12.551 Z " fill="rgb(0,0,0)"/><path d=" M 80.01 12.525 C 79.73 11.786 79.858 9.468 80.265 8.066 C 80.775 6.334 81.794 4.525 82.278 4.525 C 82.788 4.525 82.788 4.576 81.87 6.334 C 81.132 7.761 80.698 9.85 80.647 12.372 C 80.622 13.009 80.24 13.111 80.01 12.525 Z " fill="rgb(0,0,0)"/><path d=" M 91.96 8.117 C 91.833 7.888 95.91 5.799 96.445 5.799 C 97.438 5.799 95.4 7.327 93.566 7.99 C 92.343 8.423 92.164 8.423 91.96 8.117 Z " fill="rgb(0,0,0)"/><path d=" M 96.929 5.009 C 96.929 4.499 97.464 3.76 97.821 3.76 C 98.356 3.76 98.305 4.372 97.744 4.856 C 97.209 5.365 96.929 5.416 96.929 5.009 Z " fill="rgb(0,0,0)"/></g><g><path d=" M 83.17 57.012 C 83.17 56.859 83.45 56.655 83.756 56.528 C 84.367 56.299 84.367 56.273 84.52 50.107 C 84.622 46.719 84.699 42.999 84.699 41.852 L 84.699 39.763 L 83.934 39.61 C 82.533 39.329 83.119 38.922 84.928 38.922 C 86.38 38.922 86.839 39.024 87.629 39.584 C 88.572 40.221 88.597 40.221 89.132 39.737 C 91.043 37.979 93.464 38.005 95.578 39.788 C 97.336 41.266 98.126 44.986 97.311 47.967 C 96.343 51.56 93.616 53.037 89.871 52.018 C 89.285 51.865 89.285 51.891 89.285 54.057 C 89.285 56.222 89.285 56.273 89.998 56.554 L 90.686 56.834 L 90.049 57.012 C 89.056 57.318 83.17 57.318 83.17 57.012 Z  M 92.139 50.362 C 93.234 48.884 93.285 41.928 92.215 40.298 C 91.655 39.431 90.584 39.482 89.693 40.425 L 89.005 41.139 L 89.081 45.725 C 89.158 50.897 89.26 51.228 90.763 51.101 C 91.374 51.05 91.807 50.821 92.139 50.362 Z " fill="rgb(255,102,196)"/><path d=" M 72.469 52.069 C 69.87 51.05 69.921 51.05 69.156 51.636 C 67.806 52.63 67.628 52.324 67.628 49.19 C 67.628 47.101 67.653 47.05 68.188 47.126 C 68.545 47.177 69.105 47.738 69.717 48.655 C 71.016 50.591 71.959 51.228 73.794 51.356 C 75.246 51.458 75.297 51.432 76.163 50.54 C 76.877 49.776 77.055 49.368 77.055 48.604 C 77.055 47.228 76.087 46.209 73.029 44.323 C 70.175 42.54 69.131 41.572 68.392 39.865 C 67.347 37.52 68.239 35.253 70.685 34.004 C 71.984 33.342 72.265 33.291 74.38 33.367 C 76.265 33.444 76.851 33.571 77.488 34.03 C 78.456 34.718 78.635 34.718 79.221 34.081 C 79.475 33.8 79.96 33.571 80.291 33.571 C 80.851 33.571 80.877 33.622 80.877 35.813 C 80.877 39.177 80.291 39.559 78.889 37.062 C 77.794 35.151 76.596 34.259 75.093 34.259 C 73.539 34.259 72.723 35.125 72.723 36.731 C 72.723 38.208 73.208 38.769 76.443 40.96 C 79.654 43.151 80.775 44.094 81.284 45.062 C 81.743 45.98 81.743 48.426 81.259 49.368 C 80.8 50.235 79.577 51.228 78.278 51.763 C 76.927 52.349 73.564 52.528 72.469 52.069 Z " fill="rgb(255,102,196)"/><path d=" M 102.305 51.967 C 100.445 51.254 99.553 49.445 100.088 47.483 C 100.521 45.954 101.209 45.623 104.929 45.113 L 108.191 44.655 L 108.038 43.024 C 107.758 40.374 107.146 39.533 105.235 39.279 L 104.063 39.1 L 104.063 41.189 L 104.063 43.253 L 103.095 43.253 C 101.897 43.253 101.006 42.438 101.006 41.317 C 101.006 39.686 102.381 38.718 105.057 38.489 C 107.579 38.285 109.388 38.871 110.815 40.374 C 112.216 41.852 112.471 42.897 112.471 47.559 L 112.471 51.101 L 113.236 51.254 C 113.669 51.33 114 51.534 114 51.687 C 114 51.891 113.363 51.942 111.987 51.891 C 110.153 51.789 109.872 51.712 109.184 51.05 L 108.42 50.311 L 107.758 51.101 C 106.662 52.426 104.394 52.783 102.305 51.967 Z  M 107.044 50.642 C 107.63 50.107 108.14 48.171 108.14 46.54 L 108.14 45.521 L 106.815 45.699 C 104.624 45.98 104.573 46.056 104.573 48.273 C 104.573 49.725 104.675 50.337 105.006 50.693 C 105.541 51.279 106.382 51.279 107.044 50.642 Z " fill="rgb(255,102,196)"/></g></g></g></svg>